/* XPM */
static char *os[] = {
/* columns rows colors chars-per-pixel */
"32 32 13 1",
"  c #66CC33",
". c #99CC33",
"X c #99CC66",
"o c #99CC99",
"O c #CCCC99",
"+ c #CCFF99",
"@ c #C0DCC0",
"# c #CCFFCC",
"$ c #E7E7D6",
"% c #EAEAEA",
"& c #F1F1F1",
"* c #FFFBF0",
"= c gray100",
/* pixels */
"======&+XX.          .XX+*======",
"====*X                    X*====",
"===$                       .$===",
"==$                          $==",
"==X                          X==",
"=@                            @=",
"=X                            X=",
"*                              *",
"@                              #",
"O                              O",
"X           .O@#$@X    o@#$@+X X",
"X          X*======$  @=======XX",
".          $========O ===*&*==OX",
"           ===X  @==$X==#  X==@ ",
"          X==%   X==$X==$X.   . ",
"          X==$   X==$ =====*%+. ",
"          X==$   X==$ O=======# ",
"          X==$   X==$  .XoO@==* ",
".          ==*   X==$X$$o   *==.",
".          *==$++&==+X==*OoO==*X",
"X          O========X *=======#X",
"X           O*====%X  X*=====$.X",
"O             XXX       XXXX   O",
"@                              #",
"*                              *",
"=X                            X=",
"=@                            @=",
"==X                          X==",
"==$                          $==",
"===$                       .$===",
"====*X                    X*====",
"======*+XX           .XX+*======"
};
